<?xml version="1.0" encoding="UTF-8"?>
<!DOCTYPE svg PUBLIC "-//W3C//DTD SVG 1.1//EN" "http://www.w3.org/Graphics/SVG/1.1/DTD/svg11.dtd">
<svg xmlns="http://www.w3.org/2000/svg" version="1.1" width="1286px" height="1460px" style="shape-rendering:geometricPrecision; text-rendering:geometricPrecision; image-rendering:optimizeQuality; fill-rule:evenodd; clip-rule:evenodd" xmlns:xlink="http://www.w3.org/1999/xlink">
<g><path style="opacity:0.875" fill="#8d97b9" d="M 1087.5,605.5 C 1085.17,604.167 1082.83,602.833 1080.5,601.5C 941.791,466.757 782.791,361.924 603.5,287C 485.027,238.837 362.36,206.504 235.5,190C 222.559,187.969 209.559,186.969 196.5,187C 194.324,190.511 192.824,194.344 192,198.5C 181.561,245.529 171.061,292.529 160.5,339.5C 159.833,339.833 159.167,340.167 158.5,340.5C 168.755,289.079 180.255,237.745 193,186.5C 194.419,185.54 195.919,184.707 197.5,184C 441.729,209.064 665.396,289.731 868.5,426C 946.921,478.893 1019.92,538.726 1087.5,605.5 Z"/></g>
<g><path style="opacity:1" fill="#293d7d" d="M 1080.5,601.5 C 1081.17,602.5 1081.83,603.5 1082.5,604.5C 1035.71,567.922 984.377,538.755 928.5,517C 835.921,484.332 741.921,479.499 646.5,502.5C 645.508,502.328 644.842,502.662 644.5,503.5C 585.291,521.938 530.624,549.105 480.5,585C 444.986,613.172 410.653,642.839 377.5,674C 361.556,689.605 346.722,706.105 333,723.5C 331.214,726.736 329.714,730.07 328.5,733.5C 327.566,734.568 327.232,735.901 327.5,737.5C 325.801,737.66 324.134,737.494 322.5,737C 242.439,645.995 194.939,539.828 180,418.5C 177.353,397.246 175.686,375.913 175,354.5C 170.019,349.684 165.185,344.684 160.5,339.5C 171.061,292.529 181.561,245.529 192,198.5C 192.824,194.344 194.324,190.511 196.5,187C 209.559,186.969 222.559,187.969 235.5,190C 362.36,206.504 485.027,238.837 603.5,287C 782.791,361.924 941.791,466.757 1080.5,601.5 Z"/></g>
<g><path style="opacity:0.999" fill="#1966a9" d="M 160.5,339.5 C 165.185,344.684 170.019,349.684 175,354.5C 175.686,375.913 177.353,397.246 180,418.5C 194.939,539.828 242.439,645.995 322.5,737C 324.134,737.494 325.801,737.66 327.5,737.5C 327.232,735.901 327.566,734.568 328.5,733.5C 328.5,734.5 328.5,735.5 328.5,736.5C 370.608,776.243 417.275,809.91 468.5,837.5C 462.48,952.863 455.98,1068.2 449,1183.5C 416.414,1205.88 382.581,1226.38 347.5,1245C 334.085,1250.47 320.752,1256.14 307.5,1262C 300.087,1266 296.087,1272.17 295.5,1280.5C 295.5,1280.83 295.5,1281.17 295.5,1281.5C 284.79,1288.35 273.123,1291.85 260.5,1292C 258.714,1291.22 257.214,1290.05 256,1288.5C 123.439,982.942 90.9392,666.942 158.5,340.5C 159.167,340.167 159.833,339.833 160.5,339.5 Z"/></g>
<g><path style="opacity:1" fill="#faac18" d="M 1082.5,604.5 C 1084.23,607.2 1086.57,609.2 1089.5,610.5C 1113.1,632.936 1136.6,655.602 1160,678.5C 1161.5,682.039 1161.84,685.705 1161,689.5C 1097.58,786.776 1020.75,872.443 930.5,946.5C 930.167,946.5 929.833,946.5 929.5,946.5C 895.966,934.634 861.3,928.134 825.5,927C 794.334,927.348 763.167,928.181 732,929.5C 706.332,927.263 680.832,928.263 655.5,932.5C 658.231,925.305 660.565,917.972 662.5,910.5C 684.474,827.237 689.141,742.903 676.5,657.5C 669.891,627.508 663.391,597.508 657,567.5C 653.067,545.902 649.567,524.235 646.5,502.5C 741.921,479.499 835.921,484.332 928.5,517C 984.377,538.755 1035.71,567.922 1082.5,604.5 Z"/></g>
<g><path style="opacity:0.84" fill="#8e97ba" d="M 644.5,503.5 C 644.5,504.167 644.5,504.833 644.5,505.5C 566.401,530.361 497.067,569.861 436.5,624C 403.197,652.581 371.697,683.081 342,715.5C 339,719.833 336,724.167 333,728.5C 331.659,731.022 330.826,733.689 330.5,736.5C 329.833,736.5 329.167,736.5 328.5,736.5C 328.5,735.5 328.5,734.5 328.5,733.5C 329.714,730.07 331.214,726.736 333,723.5C 346.722,706.105 361.556,689.605 377.5,674C 410.653,642.839 444.986,613.172 480.5,585C 530.624,549.105 585.291,521.938 644.5,503.5 Z"/></g>
<g><path style="opacity:0.783" fill="#fcd387" d="M 646.5,502.5 C 649.567,524.235 653.067,545.902 657,567.5C 663.391,597.508 669.891,627.508 676.5,657.5C 689.141,742.903 684.474,827.237 662.5,910.5C 662.167,909.833 661.833,909.167 661.5,908.5C 661.5,907.833 661.5,907.167 661.5,906.5C 682.639,823.428 686.806,740.428 674,657.5C 665.859,621.27 658.193,584.937 651,548.5C 648.398,534.223 646.231,519.889 644.5,505.5C 644.5,504.833 644.5,504.167 644.5,503.5C 644.842,502.662 645.508,502.328 646.5,502.5 Z"/></g>
<g><path style="opacity:1" fill="#897765" d="M 1080.5,601.5 C 1082.83,602.833 1085.17,604.167 1087.5,605.5C 1089.17,606.5 1090.5,607.833 1091.5,609.5C 1091.16,610.338 1090.49,610.672 1089.5,610.5C 1086.57,609.2 1084.23,607.2 1082.5,604.5C 1081.83,603.5 1081.17,602.5 1080.5,601.5 Z"/></g>
<g><path style="opacity:0.857" fill="#fcd488" d="M 1091.5,609.5 C 1114.49,631.661 1137.66,653.661 1161,675.5C 1164.27,680.566 1164.94,685.899 1163,691.5C 1099.88,789.144 1022.71,874.477 931.5,947.5C 930.833,947.5 930.5,947.167 930.5,946.5C 1020.75,872.443 1097.58,786.776 1161,689.5C 1161.84,685.705 1161.5,682.039 1160,678.5C 1136.6,655.602 1113.1,632.936 1089.5,610.5C 1090.49,610.672 1091.16,610.338 1091.5,609.5 Z"/></g>
<g><path style="opacity:0.893" fill="#84add1" d="M 328.5,736.5 C 329.167,736.5 329.833,736.5 330.5,736.5C 373.241,774.579 419.574,807.579 469.5,835.5C 469.167,836.167 468.833,836.833 468.5,837.5C 417.275,809.91 370.608,776.243 328.5,736.5 Z"/></g>
<g><path style="opacity:0.877" fill="#8d97b9" d="M 469.5,835.5 C 530.978,865.902 594.978,889.568 661.5,906.5C 661.5,907.167 661.5,907.833 661.5,908.5C 594.261,892.534 529.928,868.867 468.5,837.5C 468.833,836.833 469.167,836.167 469.5,835.5 Z"/></g>
<g><path style="opacity:1" fill="#293d7c" d="M 468.5,837.5 C 529.928,868.867 594.261,892.534 661.5,908.5C 661.833,909.167 662.167,909.833 662.5,910.5C 660.565,917.972 658.231,925.305 655.5,932.5C 614.142,1042.43 545.142,1130.59 448.5,1197C 414.802,1220.19 379.802,1241.36 343.5,1260.5C 342.833,1260.5 342.5,1260.83 342.5,1261.5C 326.753,1267.64 311.087,1273.97 295.5,1280.5C 296.087,1272.17 300.087,1266 307.5,1262C 320.752,1256.14 334.085,1250.47 347.5,1245C 382.581,1226.38 416.414,1205.88 449,1183.5C 455.98,1068.2 462.48,952.863 468.5,837.5 Z"/></g>
<g><path style="opacity:1" fill="#fde305" d="M 929.5,946.5 C 854.045,1012.73 774.045,1072.89 689.5,1127C 655.304,1147.6 620.304,1166.94 584.5,1185C 582.419,1185.87 580.253,1186.37 578,1186.5C 569.906,1184.79 562.073,1185.63 554.5,1189C 538.059,1199.89 520.726,1209.22 502.5,1217C 466.382,1234.89 428.715,1248.56 389.5,1258C 374.131,1261.27 358.797,1262.11 343.5,1260.5C 379.802,1241.36 414.802,1220.19 448.5,1197C 545.142,1130.59 614.142,1042.43 655.5,932.5C 680.832,928.263 706.332,927.263 732,929.5C 763.167,928.181 794.334,927.348 825.5,927C 861.3,928.134 895.966,934.634 929.5,946.5 Z"/></g>
<g><path style="opacity:0.725" fill="#fef17e" d="M 929.5,946.5 C 929.833,946.5 930.167,946.5 930.5,946.5C 930.5,947.167 930.833,947.5 931.5,947.5C 855.495,1015.01 774.495,1075.84 688.5,1130C 654.971,1150.27 620.638,1169.27 585.5,1187C 576.5,1188 567.5,1189 558.5,1190C 511.816,1216.84 462.816,1238.51 411.5,1255C 388.942,1261.86 365.942,1264.69 342.5,1263.5C 342.5,1262.83 342.5,1262.17 342.5,1261.5C 342.5,1260.83 342.833,1260.5 343.5,1260.5C 358.797,1262.11 374.131,1261.27 389.5,1258C 428.715,1248.56 466.382,1234.89 502.5,1217C 520.726,1209.22 538.059,1199.89 554.5,1189C 562.073,1185.63 569.906,1184.79 578,1186.5C 580.253,1186.37 582.419,1185.87 584.5,1185C 620.304,1166.94 655.304,1147.6 689.5,1127C 774.045,1072.89 854.045,1012.73 929.5,946.5 Z"/></g>
<g><path style="opacity:0.812" fill="#8e98ba" d="M 342.5,1261.5 C 342.5,1262.17 342.5,1262.83 342.5,1263.5C 328.309,1269.74 313.975,1275.91 299.5,1282C 297.934,1282.76 296.601,1282.6 295.5,1281.5C 295.5,1281.17 295.5,1280.83 295.5,1280.5C 311.087,1273.97 326.753,1267.64 342.5,1261.5 Z"/></g>
</svg>
