<svg version="1.2" xmlns="http://www.w3.org/2000/svg" viewBox="0 0 121 125" width="121" height="125">
	<title>hnblogo-svg</title>
	<style>
		.s0 { fill: none;stroke: #949ebe;stroke-width: 2 } 
		.s1 { fill: none;stroke: #fff282;stroke-width: 2 } 
		.s2 { fill: none;stroke: #fdd68c;stroke-width: 2 } 
		.s3 { fill: none;stroke: #92754b;stroke-width: 2 } 
		.s4 { fill: none;stroke: #215294;stroke-width: 2 } 
		.s5 { fill: none;stroke: #8cb3d5;stroke-width: 2 } 
		.s6 { fill: none;stroke: #fdc90e;stroke-width: 2 } 
		.s7 { fill: none;stroke: #949141;stroke-width: 2 } 
		.s8 { fill: #293d7d } 
		.s9 { fill: #1967aa } 
		.s10 { fill: #fbad18 } 
		.s11 { fill: #fee404 } 
	</style>
	<g id="Layer">
		<path id="Layer" fill-rule="evenodd" class="s0" d="m24.2 119.4l4.9-2"/>
		<path id="Layer" fill-rule="evenodd" class="s1" d="m29.1 117.4c6.4 0.5 14.5-3.5 20.1-6.2 1.5-0.7 2-1.7 4.1-1.5q0.1 0.1 0.2 0 0.2 0 0.3 0 0.1 0 0.2 0 0.2-0.1 0.3-0.1 8.9-4.4 17.1-9.9c6.3-4.4 12.8-9.2 19.1-14.7"/>
		<path id="Layer" fill-rule="evenodd" class="s2" d="m90.5 85q13.6-10.8 23.9-25.9 0.8-1.2-0.2-2.1l-6.9-6.6"/>
		<path id="Layer" fill-rule="evenodd" class="s0" d="m107.3 50.4c-25.3-24.9-57.1-40.5-92.6-44.3q-0.6 0-0.7 0.5l-3.6 15.4"/>
		<path id="Layer" fill-rule="evenodd" class="s3" d="m107.3 50.4q-21.1-17.1-46.2-11.4"/>
		<path id="Layer" fill-rule="evenodd" class="s0" d="m61.1 39q-9.8 3-17.9 8.9c-2.2 1.6-16 13.1-15.4 15.3"/>
		<path id="Layer" fill-rule="evenodd" class="s4" d="m27.8 63.2q-0.5 0.1-0.9-0.3-14.4-16.9-14.9-39 0-0.5-0.4-0.8l-1.2-1.1"/>
		<path id="Layer" fill-rule="evenodd" class="s0" d="m62.7 81.1q-10.6-2.6-20.3-7.5"/>
		<path id="Layer" fill-rule="evenodd" class="s5" d="m27.8 63.2q6.9 6.2 14.6 10.4"/>
		<path id="Layer" fill-rule="evenodd" class="s4" d="m42.4 73.6l-2.1 35.4q0 0.5-0.4 0.7c-4.2 2.5-8.7 5.7-13.2 7.2q-2.5 0.9-2.5 2.5"/>
		<path id="Layer" fill-rule="evenodd" class="s6" d="m90.5 85q-7.7-2.6-16.2-1.9-2.9 0.2-6.2 0.1-3.4-0.2-6.2 0.3"/>
		<path id="Layer" fill-rule="evenodd" class="s3" d="m61.9 83.5l0.8-2.4"/>
		<path id="Layer" fill-rule="evenodd" class="s2" d="m62.7 81.1q3.8-15.5 1-28.3-2.2-9.7-2.6-13.8"/>
		<path id="Layer" fill-rule="evenodd" class="s7" d="m61.9 83.5c-6.5 16.7-17.4 25.8-32.8 33.9"/>
	</g>
	<path id="Layer" class="s8" d="m107.3 50.4q-21.1-17.1-46.2-11.4-9.8 3-17.9 8.9c-2.2 1.6-16 13.1-15.4 15.3q-0.5 0.1-0.9-0.3-14.4-16.9-14.9-39 0-0.5-0.4-0.8l-1.2-1.1 3.6-15.4q0.1-0.5 0.7-0.5c35.5 3.8 67.3 19.4 92.6 44.3z"/>
	<path id="Layer" class="s9" d="m10.4 22l1.2 1.1q0.4 0.3 0.4 0.8 0.5 22.1 14.9 39 0.4 0.4 0.9 0.3 6.9 6.2 14.6 10.4l-2.1 35.4q0 0.5-0.4 0.7c-4.2 2.5-8.7 5.7-13.2 7.2q-2.5 0.9-2.5 2.5-1.7 1-3.3 1.2-0.1 0-0.2 0-0.1-0.1-0.3-0.1-0.1-0.1-0.1-0.2-0.1-0.1-0.2-0.2-20.6-47.3-9.7-98.1z"/>
	<path id="Layer" class="s10" d="m107.3 50.4l6.9 6.6q1 0.9 0.2 2.1-10.3 15.1-23.9 25.9-7.7-2.6-16.2-1.9-2.9 0.2-6.2 0.1-3.3-0.2-6.2 0.3l0.8-2.4q3.8-15.5 1-28.3-2.2-9.7-2.6-13.8 25.1-5.7 46.2 11.4z"/>
	<path id="Layer" class="s8" d="m42.4 73.6q9.7 4.9 20.3 7.5l-0.8 2.4c-6.5 16.7-17.4 25.8-32.8 33.9l-4.9 2q0-1.6 2.5-2.5c4.5-1.5 9-4.7 13.2-7.2q0.4-0.2 0.4-0.7z"/>
	<path id="Layer" class="s11" d="m90.5 85c-6.3 5.5-12.8 10.3-19.1 14.7q-8.2 5.6-17.1 9.9-0.1 0-0.3 0.1-0.1 0-0.2 0-0.1 0-0.3 0-0.1 0.1-0.2 0c-2.1-0.2-2.6 0.8-4 1.5-5.7 2.7-13.8 6.7-20.2 6.2 15.4-8.1 26.3-17.2 32.8-33.9q2.9-0.5 6.2-0.3 3.3 0.1 6.2-0.1 8.5-0.7 16.2 1.9z"/>
</svg>